<svg width="800" height="520" viewBox="0 0 800 520" fill="none" xmlns="http://www.w3.org/2000/svg">
  <rect width="800" height="520" rx="36" fill="#12202D"/>
  <rect x="34" y="34" width="732" height="452" rx="28" fill="url(#bg)"/>
  <circle cx="400" cy="180" r="84" fill="#F3C7A7"/>
  <path d="M316 168C330 104 372 72 430 72C484 72 524 106 538 170H316Z" fill="#3E2F24"/>
  <path d="M264 442C274 334 328 266 400 266C472 266 526 334 536 442H264Z" fill="#194B7A"/>
  <path d="M298 442C306 354 348 304 400 304C452 304 494 354 502 442H298Z" fill="#F2B134" fill-opacity="0.28"/>
  <defs>
    <linearGradient id="bg" x1="84" y1="70" x2="720" y2="458" gradientUnits="userSpaceOnUse">
      <stop stop-color="#284D74"/>
      <stop offset="1" stop-color="#E7B74D"/>
    </linearGradient>
  </defs>
</svg>
